<?xml version="1.0" encoding="UTF-8"?>
<svg width="256" height="256" viewBox="0 0 256 256" fill="none" xmlns="http://www.w3.org/2000/svg">
  <defs>
    <radialGradient id="flameOuter" cx="50%" cy="68%" r="62%">
      <stop offset="0%" stop-color="#e09f24"/>
      <stop offset="45%" stop-color="#d3771d"/>
      <stop offset="80%" stop-color="#c94e23"/>
      <stop offset="100%" stop-color="#874b23"/>
    </radialGradient>
    <radialGradient id="flameInner" cx="50%" cy="72%" r="50%">
      <stop offset="0%" stop-color="#fff4d6"/>
      <stop offset="45%" stop-color="#ffd166"/>
      <stop offset="100%" stop-color="#e09f24"/>
    </radialGradient>
    <filter id="flameGlow" x="-40%" y="-40%" width="180%" height="180%">
      <feGaussianBlur stdDeviation="6" result="b"/>
      <feMerge>
        <feMergeNode in="b"/>
        <feMergeNode in="SourceGraphic"/>
      </feMerge>
    </filter>
  </defs>

  <!-- Outer flame -->
  <path filter="url(#flameGlow)" fill="url(#flameOuter)" d="
    M128 18
    C150 60 188 78 188 132
    C188 182 158 222 128 222
    C98 222 68 182 68 132
    C68 104 84 96 96 78
    C104 96 112 100 118 96
    C112 70 116 44 128 18 Z"/>

  <!-- Inner flame -->
  <path fill="url(#flameInner)" d="
    M130 86
    C144 112 160 122 160 152
    C160 184 146 206 128 206
    C110 206 100 186 100 162
    C100 142 112 138 120 124
    C124 138 130 138 134 134
    C128 118 124 102 130 86 Z"/>
</svg>
